<?xml version="1.0" encoding="UTF-8"?>
<svg width="225px" height="225px" viewBox="0 0 225 225" version="1.1" xmlns="http://www.w3.org/2000/svg" xmlns:xlink="http://www.w3.org/1999/xlink">
    <title>Group 4</title>
    <g id="Page-1" stroke="none" stroke-width="1" fill="none" fill-rule="evenodd">
        <g id="Artboard" transform="translate(-154.000000, -525.000000)">
            <g id="Group-4" transform="translate(154.000000, 525.000000)">
                <rect id="Rectangle" fill="#FC221C" x="0" y="0" width="225" height="225" rx="10"></rect>
                <g id="24px" transform="translate(69.000000, 69.000000)">
                    <polygon id="Path" points="0 0 88 0 88 88 0 88"></polygon>
                    <path d="M66,14.6666667 L73.3333333,25.6666667 L62.3333333,25.6666667 L55,14.6666667 L47.6666667,14.6666667 L55,25.6666667 L44,25.6666667 L36.6666667,14.6666667 L29.3333333,14.6666667 L36.6666667,25.6666667 L25.6666667,25.6666667 L18.3333333,14.6666667 L14.6666667,14.6666667 C10.6333333,14.6666667 7.37,17.9666667 7.37,22 L7.33333333,66 C7.33333333,70.0333333 10.6333333,73.3333333 14.6666667,73.3333333 L73.3333333,73.3333333 C77.3666667,73.3333333 80.6666667,70.0333333 80.6666667,66 L80.6666667,14.6666667 L66,14.6666667 Z M41.25,55.9166667 L36.6666667,66 L32.0833333,55.9166667 L22,51.3333333 L32.0833333,46.75 L36.6666667,36.6666667 L41.25,46.75 L51.3333333,51.3333333 L41.25,55.9166667 Z M62.1133333,43.78 L58.6666667,51.3333333 L55.22,43.78 L47.6666667,40.3333333 L55.22,36.8866667 L58.6666667,29.3333333 L62.1133333,36.8866667 L69.6666667,40.3333333 L62.1133333,43.78 Z" id="Shape" fill="#FFFFFF" fill-rule="nonzero"></path>
                </g>
            </g>
        </g>
    </g>
</svg>